<?xml version="1.0" encoding="utf-8"?>
<!-- Generator: Adobe Illustrator 18.0.0, SVG Export Plug-In . SVG Version: 6.00 Build 0)  -->
<!DOCTYPE svg PUBLIC "-//W3C//DTD SVG 1.1//EN" "http://www.w3.org/Graphics/SVG/1.1/DTD/svg11.dtd">
<svg version="1.1" id="Layer_1" xmlns="http://www.w3.org/2000/svg" xmlns:xlink="http://www.w3.org/1999/xlink" x="0px" y="0px"
	 viewBox="0 0 64 64" enable-background="new 0 0 64 64" xml:space="preserve">
<g>
	<g>
		<g>
			<path fill="#FF6A4D" d="M32,0c17.7,0,32,14.3,32,32S49.7,64,32,64S0,49.7,0,32S14.3,0,32,0z"/>
		</g>
	</g>
	<g>
		<g>
			<path fill="#FFFFFF" d="M41.8,10l8.2,7.8v34.8c0,0.8-0.7,1.4-1.5,1.4h-33c-0.8,0-1.5-0.6-1.5-1.4V11.4c0-0.8,0.7-1.4,1.5-1.4
				H41.8z"/>
		</g>
	</g>
	<g>
		<g>
			<polygon fill="#D3D5DD" points="50,17.8 41.8,17.8 41.8,10 			"/>
		</g>
	</g>
	<g>
		<g>
			<path fill="#4FCCFC" d="M44,34V20h-8.5H20v14H44z"/>
		</g>
	</g>
	<g>
		<g>
			<polygon fill="#3EB57C" points="38,28 35.2,30.8 32,34 38,34 44,34 			"/>
		</g>
	</g>
	<g>
		<g>
			<path fill="#FFEB33" d="M35.5,21.9c1.1,0,2,0.9,2,2c0,1.1-0.9,2-2,2c-0.5,0-1-0.2-1.4-0.6c-0.4-0.4-0.6-0.9-0.6-1.4
				C33.5,22.8,34.4,21.9,35.5,21.9z"/>
		</g>
	</g>
	<g>
		<g>
			<polygon fill="#309E6C" points="35.2,30.8 31.9,27.2 29,24 20,34 32,34 38,34 			"/>
		</g>
	</g>
	<g>
		<g>
			<path d="M42,43.9v4h-1.4v-0.6c-0.3,0.3-0.6,0.5-0.9,0.5C39.4,48,39,48,38.6,48c-0.6,0-1.1-0.1-1.6-0.3s-0.8-0.5-1-0.8
				c-0.3-0.4-0.5-0.8-0.6-1.2c-0.1-0.5-0.2-0.9-0.2-1.4c0-0.6,0.1-1.1,0.2-1.6c0.1-0.5,0.3-0.9,0.6-1.3c0.3-0.4,0.7-0.7,1.1-0.9
				c0.5-0.2,1-0.3,1.7-0.3c0.6,0,1.2,0.2,1.8,0.5c0.3,0.2,0.5,0.4,0.7,0.6c0.2,0.3,0.4,0.6,0.5,1l-1.7,0.4c-0.2-0.3-0.4-0.6-0.6-0.8
				c-0.2-0.2-0.6-0.3-1-0.3c-0.4,0-0.6,0.1-0.8,0.3c-0.2,0.2-0.4,0.4-0.5,0.7c-0.1,0.3-0.2,0.6-0.2,0.9c0,0.3,0,0.6,0,0.8
				c0,0.2,0,0.5,0.1,0.8c0,0.3,0.1,0.6,0.2,0.8s0.3,0.5,0.5,0.6c0.2,0.2,0.5,0.3,0.8,0.3c0.5,0,0.8-0.1,1.1-0.4
				c0.2-0.2,0.4-0.5,0.4-0.9h-1.6v-1.4H42z"/>
		</g>
	</g>
	<g>
		<g>
			<polygon points="35,40.1 32.8,47.9 30.9,47.9 28.6,40.1 30.4,40.1 31.8,45.3 33.2,40.1 			"/>
		</g>
	</g>
	<g>
		<g>
			<path d="M28.1,41.9l-1.7,0.5c-0.1-0.3-0.3-0.5-0.5-0.7c-0.2-0.2-0.5-0.3-0.9-0.3c-0.1,0-0.2,0-0.4,0c-0.1,0-0.2,0.1-0.3,0.1
				c-0.1,0.1-0.2,0.1-0.2,0.2C24,41.8,24,41.9,24,42.1c0,0.1,0,0.2,0.1,0.3c0.1,0.1,0.2,0.2,0.4,0.3c0.4,0.2,0.8,0.4,1.2,0.5
				c0.6,0.2,1.2,0.5,1.7,0.8c0.5,0.4,0.8,0.9,0.8,1.6c0,0.8-0.3,1.4-0.8,1.8c-0.5,0.4-1.3,0.6-2.2,0.6c-0.6,0-1.2-0.2-1.8-0.5
				c-0.3-0.1-0.6-0.3-0.8-0.6c-0.2-0.2-0.4-0.5-0.6-0.9l1.5-0.6c0.1,0.2,0.2,0.4,0.3,0.5c0.1,0.2,0.2,0.3,0.4,0.4
				c0.1,0.1,0.3,0.2,0.5,0.2c0.2,0.1,0.4,0.1,0.6,0.1c0.2,0,0.3,0,0.5,0c0.2,0,0.3-0.1,0.4-0.1c0.1-0.1,0.2-0.2,0.3-0.3
				c0.1-0.1,0.1-0.3,0.1-0.4c0-0.3-0.1-0.5-0.4-0.7c-0.3-0.2-0.7-0.4-1.1-0.5c-0.9-0.3-1.5-0.6-2-1c-0.5-0.3-0.7-0.8-0.7-1.5
				c0-0.6,0.3-1.1,0.8-1.5c0.5-0.4,1.2-0.6,2-0.6c0.7,0,1.3,0.2,1.8,0.5c0.3,0.1,0.5,0.3,0.7,0.6C27.8,41.2,27.9,41.5,28.1,41.9z"/>
		</g>
	</g>
</g>
</svg>
